<svg id="Layer_1" data-name="Layer 1" xmlns="http://www.w3.org/2000/svg" viewBox="0 0 123.93 169.03"><defs><style>.cls-1,.cls-3{fill:#4b4ab2;}.cls-2{fill:#fff;}.cls-3{stroke:#4b4ab2;stroke-miterlimit:10;stroke-width:3px;}</style></defs><circle class="cls-1" cx="61.97" cy="61.97" r="61.97"/><circle class="cls-2" cx="61.97" cy="61.97" r="47.97"/><path class="cls-3" d="M63.38,167.53a4.93,4.93,0,0,1-4.94-4.93V126a4.94,4.94,0,1,1,9.87,0V162.6A4.93,4.93,0,0,1,63.38,167.53Z"/><path class="cls-1" d="M22.32,66.83A16.16,16.16,0,0,1,19.06,65l1.41-2.39.18.11A15.08,15.08,0,0,0,23.24,64a8.4,8.4,0,0,0,3.05.51A9,9,0,0,0,30,63.77a16.57,16.57,0,0,0,2.89-1.69L33,62l1.44,2.06-.14.15a21,21,0,0,1-1.9,1.57A9.69,9.69,0,0,1,30,67a9.9,9.9,0,0,1-3.43.57A10.62,10.62,0,0,1,22.32,66.83Zm12.36-.57a8.88,8.88,0,0,1-2.75-3.74L26.86,50.7l2.6-1.38,5,11.71a5.74,5.74,0,0,0,1.64,2.46,4.07,4.07,0,0,0,2.52.68H39l.18,1.63L39,67.43h-.4A6.53,6.53,0,0,1,34.68,66.26Z"/><path class="cls-1" d="M38.62,64.17h.55a5.19,5.19,0,0,0,3-.79A5.35,5.35,0,0,0,44,60.86a19.74,19.74,0,0,0,1.08-4.61l2.64.54a11.08,11.08,0,0,0,.13,4.77A4.18,4.18,0,0,0,50,64.13a9.41,9.41,0,0,0,4.23.79,21.66,21.66,0,0,0,5.95-.75,11.07,11.07,0,0,0,4.12-2,4,4,0,0,0,1.64-2.7,2.68,2.68,0,0,0-1-2.38,4.35,4.35,0,0,0-3.07-.9A9.49,9.49,0,0,0,56,58.91a26.71,26.71,0,0,0-5.47,7.24l-2.24-1.37a28.29,28.29,0,0,1,6.41-8.58,11,11,0,0,1,7.14-3.11,7.24,7.24,0,0,1,3.58.86,5.89,5.89,0,0,1,2.42,2.4,6,6,0,0,1,.69,3.42,7,7,0,0,1-2,4.43,12.07,12.07,0,0,1-4.94,2.94,21.73,21.73,0,0,1-6.92,1,12.12,12.12,0,0,1-6.17-1.24,5.57,5.57,0,0,1-2.66-3.41,7.25,7.25,0,0,1-2.46,2.89,7.52,7.52,0,0,1-4.23,1h-.5Zm27,3.18a17.35,17.35,0,0,1-2.77-.29,5.39,5.39,0,0,1-1.9-.7l.83-.87c.8-.24,1.85-.49,3.16-.74a34.43,34.43,0,0,1,3.75-.53c.72,0,1.24-.08,1.55-.08h.18l.19,1.63-.18,1.63H70.2C68.2,67.4,66.67,67.38,65.61,67.35Z"/><path class="cls-1" d="M69.94,64.14h.87a30.71,30.71,0,0,0,6.58-.56,8.34,8.34,0,0,0,3.53-1.53,4.56,4.56,0,0,0,1.46-2.37,4.67,4.67,0,0,0-.22-2,4.15,4.15,0,0,0-1-1.64,2.62,2.62,0,0,0-1.57-.78,2.66,2.66,0,0,0-1.77.42,4.16,4.16,0,0,0-1.38,1.47,5.75,5.75,0,0,0-.68,2.06,3.2,3.2,0,0,0,.92,2.46,7.13,7.13,0,0,0,3.06,1.79,15.62,15.62,0,0,0,4.81.66h3.19l.18,1.62-.18,1.63H85.57a18.65,18.65,0,0,1-6.8-1.13,10.09,10.09,0,0,1-4.49-3.1,5.59,5.59,0,0,1-1.2-4.29,9.46,9.46,0,0,1,1.3-3.63,7.3,7.3,0,0,1,2.48-2.52,4.71,4.71,0,0,1,3-.69,4.86,4.86,0,0,1,2.89,1.41,7.62,7.62,0,0,1,1.88,3,7.73,7.73,0,0,1,.41,3.5,7,7,0,0,1-4,5.63q-3.56,1.83-10.22,1.84H70ZM75.1,46.27,76.36,45l1.3,1.3,1.27,1.26-1.3,1.31-1.26,1.26-1.31-1.3L73.8,47.58Zm6.47,0L82.84,45c.57.58,1,1,1.3,1.3l1.27,1.27-1.31,1.3-1.26,1.27-1.3-1.31-1.27-1.26Z"/><path class="cls-1" d="M87.37,64.13h.69a4.73,4.73,0,0,0,2.73-.86,6.42,6.42,0,0,0,2.08-2.51l.39-.76a26.16,26.16,0,0,1,1.86-3.1,9.25,9.25,0,0,1,2.1-2.13,4.54,4.54,0,0,1,2.37-.89,4.9,4.9,0,0,1,4.68,2.55,9.06,9.06,0,0,1,1.33,6.07,5.66,5.66,0,0,1-2.93,4.69Q100,68.63,93,64l1.3-2.72A26,26,0,0,0,99,63.92c1.35.54,2.27.68,2.75.41a2.67,2.67,0,0,0,1.28-2.44,6.06,6.06,0,0,0-.78-3.45,2.71,2.71,0,0,0-2.43-1.59,3.12,3.12,0,0,0-2.17,1.34,21,21,0,0,0-2.49,3.87l-.5,1a8,8,0,0,1-2.8,3.23A7,7,0,0,1,88,67.38h-.65Z"/></svg>